<svg version="1.1" id="Layer_1" xmlns="http://www.w3.org/2000/svg" xmlns:xlink="http://www.w3.org/1999/xlink" x="0px" y="0px"
	 width="100%" viewBox="0 0 700 700" enable-background="new 0 0 700 700" xml:space="preserve">
<path fill="#FFFFFF" opacity="1.000000" stroke="none" 
	d="
M421.000000,701.000000 
	C282.166656,701.000000 143.833313,700.982300 5.500076,701.094116 
	C1.750570,701.097168 0.904871,700.249207 0.906566,696.499939 
	C1.010648,466.166656 1.010648,235.833328 0.906566,5.500042 
	C0.904871,1.750801 1.750801,0.904872 5.500042,0.906566 
	C235.833328,1.010642 466.166656,1.010642 696.499939,0.906566 
	C700.249207,0.904872 701.095154,1.750801 701.093445,5.500042 
	C700.989380,235.833328 700.989380,466.166656 701.093506,696.499939 
	C701.095154,700.249207 700.249756,701.099976 696.499878,701.095032 
	C604.833374,700.973511 513.166687,701.000000 421.000000,701.000000 
z"/>
<path fill="#000000" opacity="1.000000" stroke="none" 
	d="
M370.809174,592.821960 
	C369.496765,602.330261 368.225037,611.400452 367.004913,620.477478 
	C366.601349,623.479797 365.956879,626.411194 364.230621,628.931824 
	C361.085510,633.524231 356.626404,636.213745 351.091705,635.593933 
	C344.909576,634.901733 340.819244,630.931152 339.058197,625.019226 
	C336.525818,616.518005 336.174347,607.629883 334.984924,598.897705 
	C327.211792,541.832581 306.187225,490.739532 267.086304,447.761169 
	C258.780518,438.631683 249.890427,430.083374 240.663757,421.903351 
	C237.357132,418.971802 236.028351,415.914642 236.668304,411.411896 
	C242.714508,368.871490 248.696152,326.321289 254.487320,283.745422 
	C260.480347,239.685455 266.281311,195.599167 272.087219,151.513977 
	C275.196533,127.904167 278.120270,104.269958 281.170807,80.652321 
	C281.932831,74.752724 285.616913,71.635979 291.247498,70.413696 
	C313.955658,65.484238 336.843536,62.531490 360.158203,63.428215 
	C378.196259,64.121986 395.972839,66.357056 413.491272,70.812721 
	C419.665680,72.383133 422.557434,75.789055 423.364868,82.171402 
	C428.109802,119.676872 432.929169,157.175446 438.120483,194.621307 
	C445.415894,247.244522 453.078857,299.816711 460.541870,352.416779 
	C463.372742,372.369049 465.959595,392.356873 468.938324,412.286591 
	C469.692841,417.334930 467.017334,420.020844 463.766418,422.763306 
	C445.051727,438.550781 429.042908,456.819366 415.121338,476.871338 
	C395.316681,505.397034 382.603333,537.032043 375.159851,570.851013 
	C373.586792,577.998047 372.292603,585.206360 370.809174,592.821960 
z"/>
<path fill="#000000" opacity="1.000000" stroke="none" 
	d="
M111.169205,206.158112 
	C134.152939,166.056732 165.490570,134.299393 203.204346,108.640999 
	C210.066833,103.972137 217.498611,100.118858 224.784775,96.101662 
	C229.332184,93.594475 232.840164,95.564636 232.913010,100.710472 
	C233.080429,112.540161 232.938812,124.373917 233.026901,136.205231 
	C233.054565,139.919571 230.831375,141.855164 228.070114,143.671585 
	C206.029816,158.170166 187.039627,176.009689 170.621933,196.598267 
	C132.026093,244.999283 114.891373,300.341705 119.194679,361.871704 
	C123.025429,416.644897 144.874054,463.934753 181.838806,504.479126 
	C203.110397,527.810608 227.749115,546.419250 256.291962,559.836182 
	C261.575897,562.320007 264.202515,565.855774 264.002869,571.871155 
	C263.721130,580.360229 264.013123,588.866882 263.961456,597.365479 
	C263.907379,606.261353 261.264465,608.077576 252.832199,604.882935 
	C232.650620,597.237061 213.774399,587.132874 196.183121,574.616882 
	C150.160904,541.872620 114.853165,500.175964 93.777428,447.644226 
	C60.508312,364.720245 67.431107,284.166199 111.169205,206.158112 
z"/>
<path fill="#000000" opacity="1.000000" stroke="none" 
	d="
M572.885559,174.117157 
	C612.826538,227.520782 633.794800,286.971649 631.715576,353.566956 
	C629.982239,409.084351 612.417358,459.550018 579.842041,504.716125 
	C551.254883,544.352722 515.784729,575.824280 471.407379,596.814697 
	C464.646912,600.012451 457.769165,602.989990 450.819244,605.751221 
	C444.517303,608.255066 441.232056,605.904541 441.151855,599.095764 
	C441.045837,590.098633 441.368835,581.086975 440.963501,572.106140 
	C440.685883,565.954651 443.530426,562.597351 448.713989,560.135193 
	C469.601288,550.213867 488.731201,537.617798 505.868378,522.049255 
	C554.423584,477.938354 582.443848,423.406372 586.545166,357.800903 
	C590.274780,298.140381 571.857361,244.906433 535.337097,197.799927 
	C519.091370,176.844971 500.257751,158.600189 478.145874,143.890045 
	C473.846100,141.029572 471.796692,137.818237 472.064819,132.417755 
	C472.527008,123.109497 472.157379,113.761238 472.188568,104.429939 
	C472.222473,94.279388 475.411041,92.392952 484.374542,97.559395 
	C516.438049,116.040421 544.420532,139.392166 567.929749,168.031342 
	C569.514587,169.961960 571.096558,171.894928 572.885559,174.117157 
z"/>
<path fill="#FFFFFF" opacity="1.000000" stroke="none" 
	d="
M341.240845,504.434814 
	C340.000031,500.646912 340.376343,497.125458 340.368317,493.642181 
	C340.267212,449.657288 340.162537,405.672394 340.149811,361.687469 
	C340.148865,358.438843 339.383789,356.425903 336.341583,354.515076 
	C324.919556,347.341003 320.363434,334.679535 324.070648,322.018433 
	C327.688477,309.662537 339.211060,300.665405 351.698425,300.445953 
	C364.319092,300.224152 376.654388,309.340179 380.667328,321.854492 
	C384.570892,334.027863 380.009552,347.575958 368.988800,354.722595 
	C365.686157,356.864258 364.820831,359.078217 364.824432,362.734558 
	C364.868042,407.053101 364.761444,451.371796 364.692902,495.690430 
	C364.690826,497.023285 364.717682,498.357849 364.662384,499.688751 
	C364.361542,506.928680 360.196533,512.197083 353.839539,513.412842 
	C348.825531,514.371765 344.721130,511.544189 341.240845,504.434814 
z"/>
<path fill="#FFFFFF" opacity="1.000000" stroke="none" 
	d="
M375.823761,190.803131 
	C365.386932,201.086365 351.911285,203.917740 339.846100,198.565308 
	C328.282166,193.435257 320.604980,181.293213 321.006226,168.768555 
	C321.487823,153.735397 332.767731,141.067245 347.593262,138.909409 
	C362.559143,136.731140 377.362701,145.766251 382.227997,159.889481 
	C386.179504,171.360092 383.751526,181.458542 375.823761,190.803131 
z"/>
</svg>