<svg version="1.1" id="Layer_1" xmlns="http://www.w3.org/2000/svg" xmlns:xlink="http://www.w3.org/1999/xlink" x="0px" y="0px"
	 width="100%" viewBox="0 0 700 700" enable-background="new 0 0 700 700" xml:space="preserve">
<path fill="none" opacity="1.000000" stroke="none" 
	d="
M421.000000,701.000000 
	C280.666656,701.000000 140.833328,701.000000 1.000000,701.000000 
	C1.000000,467.666656 1.000000,234.333328 1.000000,1.000000 
	C234.333328,1.000000 467.666656,1.000000 701.000000,1.000000 
	C701.000000,234.333328 701.000000,467.666656 701.000000,701.000000 
	C607.833313,701.000000 514.666687,701.000000 421.000000,701.000000 
M370.869934,592.386475 
	C372.292603,585.206360 373.586792,577.998047 375.159851,570.851013 
	C382.603333,537.032043 395.316681,505.397034 415.121338,476.871338 
	C429.042908,456.819366 445.051727,438.550781 463.766418,422.763306 
	C467.017334,420.020844 469.692841,417.334930 468.938324,412.286591 
	C465.959595,392.356873 463.372742,372.369049 460.541870,352.416779 
	C453.078857,299.816711 445.415894,247.244522 438.120483,194.621307 
	C432.929169,157.175446 428.109802,119.676872 423.364868,82.171402 
	C422.557434,75.789055 419.665680,72.383133 413.491272,70.812721 
	C395.972839,66.357056 378.196259,64.121986 360.158203,63.428215 
	C336.843536,62.531490 313.955658,65.484238 291.247498,70.413696 
	C285.616913,71.635979 281.932831,74.752724 281.170807,80.652321 
	C278.120270,104.269958 275.196533,127.904167 272.087219,151.513977 
	C266.281311,195.599167 260.480347,239.685455 254.487320,283.745422 
	C248.696152,326.321289 242.714508,368.871490 236.668304,411.411896 
	C236.028351,415.914642 237.441803,418.897552 240.647644,421.917480 
	C249.616760,430.366364 258.705994,438.747345 267.019867,447.822052 
	C306.269836,490.663788 327.215027,541.832153 334.981506,598.898132 
	C336.169983,607.630859 337.268646,616.408142 339.145508,625.003906 
	C340.453705,630.995300 344.909576,634.901733 351.091705,635.593933 
	C356.626404,636.213745 361.283600,633.639526 364.148499,628.883972 
	C365.639893,626.408447 366.460236,623.359985 366.922760,620.464661 
	C368.367218,611.422607 369.496765,602.330261 370.869934,592.386475 
M110.987305,206.473999 
	C67.431107,284.166199 60.508312,364.720245 93.777428,447.644226 
	C114.853165,500.175964 150.160904,541.872620 196.183121,574.616882 
	C213.774399,587.132874 232.650620,597.237061 252.832199,604.882935 
	C261.264465,608.077576 263.907379,606.261353 263.961456,597.365479 
	C264.013123,588.866882 263.721130,580.360229 264.002869,571.871155 
	C264.202515,565.855774 261.575897,562.320007 256.291962,559.836182 
	C227.749115,546.419250 203.110397,527.810608 181.838806,504.479126 
	C144.874054,463.934753 123.025429,416.644897 119.194679,361.871704 
	C114.891373,300.341705 132.026093,244.999283 170.621933,196.598267 
	C187.039627,176.009689 206.096481,158.269440 227.972977,143.527008 
	C230.256073,141.988434 232.666931,138.743530 232.773972,136.195999 
	C233.270203,124.385475 233.080429,112.540161 232.913010,100.710472 
	C232.840164,95.564636 229.332184,93.594475 224.784775,96.101662 
	C217.498611,100.118858 210.066833,103.972137 203.204346,108.640999 
	C165.490570,134.299393 134.152939,166.056732 110.987305,206.473999 
M572.679932,173.826797 
	C571.096558,171.894928 569.514587,169.961960 567.929749,168.031342 
	C544.420532,139.392166 516.438049,116.040421 484.374542,97.559395 
	C475.411041,92.392952 472.222473,94.279388 472.188568,104.429939 
	C472.157379,113.761238 472.527008,123.109497 472.064819,132.417755 
	C471.796692,137.818237 473.846100,141.029572 478.145874,143.890045 
	C500.257751,158.600189 519.091370,176.844971 535.337097,197.799927 
	C571.857361,244.906433 590.274780,298.140381 586.545166,357.800903 
	C582.443848,423.406372 554.423584,477.938354 505.868378,522.049255 
	C488.731201,537.617798 469.601288,550.213867 448.713989,560.135193 
	C443.530426,562.597351 440.685883,565.954651 440.963501,572.106140 
	C441.368835,581.086975 441.045837,590.098633 441.151855,599.095764 
	C441.232056,605.904541 444.517303,608.255066 450.819244,605.751221 
	C457.769165,602.989990 464.646912,600.012451 471.407379,596.814697 
	C515.784729,575.824280 551.254883,544.352722 579.842041,504.716125 
	C612.417358,459.550018 629.982239,409.084351 631.715576,353.566956 
	C633.794800,286.971649 612.826538,227.520782 572.679932,173.826797 
z"/>
<path fill="#000000" opacity="1.000000" stroke="none" 
	d="
M370.809174,592.821960 
	C369.496765,602.330261 368.367218,611.422607 366.922760,620.464661 
	C366.460236,623.359985 365.639893,626.408447 364.148499,628.883972 
	C361.283600,633.639526 356.626404,636.213745 351.091705,635.593933 
	C344.909576,634.901733 340.453705,630.995300 339.145508,625.003906 
	C337.268646,616.408142 336.169983,607.630859 334.981506,598.898132 
	C327.215027,541.832153 306.269836,490.663788 267.019867,447.822052 
	C258.705994,438.747345 249.616760,430.366364 240.647644,421.917480 
	C237.441803,418.897552 236.028351,415.914642 236.668304,411.411896 
	C242.714508,368.871490 248.696152,326.321289 254.487320,283.745422 
	C260.480347,239.685455 266.281311,195.599167 272.087219,151.513977 
	C275.196533,127.904167 278.120270,104.269958 281.170807,80.652321 
	C281.932831,74.752724 285.616913,71.635979 291.247498,70.413696 
	C313.955658,65.484238 336.843536,62.531490 360.158203,63.428215 
	C378.196259,64.121986 395.972839,66.357056 413.491272,70.812721 
	C419.665680,72.383133 422.557434,75.789055 423.364868,82.171402 
	C428.109802,119.676872 432.929169,157.175446 438.120483,194.621307 
	C445.415894,247.244522 453.078857,299.816711 460.541870,352.416779 
	C463.372742,372.369049 465.959595,392.356873 468.938324,412.286591 
	C469.692841,417.334930 467.017334,420.020844 463.766418,422.763306 
	C445.051727,438.550781 429.042908,456.819366 415.121338,476.871338 
	C395.316681,505.397034 382.603333,537.032043 375.159851,570.851013 
	C373.586792,577.998047 372.292603,585.206360 370.809174,592.821960 
M341.360229,504.815674 
	C344.721130,511.544189 348.825531,514.371765 353.839539,513.412842 
	C360.196533,512.197083 364.361542,506.928680 364.662384,499.688751 
	C364.717682,498.357849 364.690826,497.023285 364.692902,495.690430 
	C364.761444,451.371796 364.868042,407.053101 364.824432,362.734558 
	C364.820831,359.078217 365.686157,356.864258 368.988800,354.722595 
	C380.009552,347.575958 384.570892,334.027863 380.667328,321.854492 
	C376.654388,309.340179 364.319092,300.224152 351.698425,300.445953 
	C339.211060,300.665405 327.688477,309.662537 324.070648,322.018433 
	C320.363434,334.679535 324.919556,347.341003 336.341583,354.515076 
	C339.383789,356.425903 340.148865,358.438843 340.149811,361.687469 
	C340.162537,405.672394 340.255768,449.657349 340.390503,493.642120 
	C340.401154,497.113434 340.867126,500.583374 341.360229,504.815674 
M376.072418,190.548004 
	C383.751526,181.458542 386.179504,171.360092 382.227997,159.889481 
	C377.362701,145.766251 362.559143,136.731140 347.593262,138.909409 
	C332.767731,141.067245 321.487823,153.735397 321.006226,168.768555 
	C320.604980,181.293213 328.282166,193.435257 339.846100,198.565308 
	C351.911285,203.917740 365.386932,201.086365 376.072418,190.548004 
z"/>
<path fill="#000000" opacity="1.000000" stroke="none" 
	d="
M111.169205,206.158112 
	C134.152939,166.056732 165.490570,134.299393 203.204346,108.640999 
	C210.066833,103.972137 217.498611,100.118858 224.784775,96.101662 
	C229.332184,93.594475 232.840164,95.564636 232.913010,100.710472 
	C233.080429,112.540161 233.270203,124.385475 232.773972,136.195999 
	C232.666931,138.743530 230.256073,141.988434 227.972977,143.527008 
	C206.096481,158.269440 187.039627,176.009689 170.621933,196.598267 
	C132.026093,244.999283 114.891373,300.341705 119.194679,361.871704 
	C123.025429,416.644897 144.874054,463.934753 181.838806,504.479126 
	C203.110397,527.810608 227.749115,546.419250 256.291962,559.836182 
	C261.575897,562.320007 264.202515,565.855774 264.002869,571.871155 
	C263.721130,580.360229 264.013123,588.866882 263.961456,597.365479 
	C263.907379,606.261353 261.264465,608.077576 252.832199,604.882935 
	C232.650620,597.237061 213.774399,587.132874 196.183121,574.616882 
	C150.160904,541.872620 114.853165,500.175964 93.777428,447.644226 
	C60.508312,364.720245 67.431107,284.166199 111.169205,206.158112 
z"/>
<path fill="#000000" opacity="1.000000" stroke="none" 
	d="
M572.885559,174.117157 
	C612.826538,227.520782 633.794800,286.971649 631.715576,353.566956 
	C629.982239,409.084351 612.417358,459.550018 579.842041,504.716125 
	C551.254883,544.352722 515.784729,575.824280 471.407379,596.814697 
	C464.646912,600.012451 457.769165,602.989990 450.819244,605.751221 
	C444.517303,608.255066 441.232056,605.904541 441.151855,599.095764 
	C441.045837,590.098633 441.368835,581.086975 440.963501,572.106140 
	C440.685883,565.954651 443.530426,562.597351 448.713989,560.135193 
	C469.601288,550.213867 488.731201,537.617798 505.868378,522.049255 
	C554.423584,477.938354 582.443848,423.406372 586.545166,357.800903 
	C590.274780,298.140381 571.857361,244.906433 535.337097,197.799927 
	C519.091370,176.844971 500.257751,158.600189 478.145874,143.890045 
	C473.846100,141.029572 471.796692,137.818237 472.064819,132.417755 
	C472.527008,123.109497 472.157379,113.761238 472.188568,104.429939 
	C472.222473,94.279388 475.411041,92.392952 484.374542,97.559395 
	C516.438049,116.040421 544.420532,139.392166 567.929749,168.031342 
	C569.514587,169.961960 571.096558,171.894928 572.885559,174.117157 
z"/>
<path fill="none" opacity="1.000000" stroke="none" 
	d="
M341.240845,504.434814 
	C340.867126,500.583374 340.401154,497.113434 340.390503,493.642120 
	C340.255768,449.657349 340.162537,405.672394 340.149811,361.687469 
	C340.148865,358.438843 339.383789,356.425903 336.341583,354.515076 
	C324.919556,347.341003 320.363434,334.679535 324.070648,322.018433 
	C327.688477,309.662537 339.211060,300.665405 351.698425,300.445953 
	C364.319092,300.224152 376.654388,309.340179 380.667328,321.854492 
	C384.570892,334.027863 380.009552,347.575958 368.988800,354.722595 
	C365.686157,356.864258 364.820831,359.078217 364.824432,362.734558 
	C364.868042,407.053101 364.761444,451.371796 364.692902,495.690430 
	C364.690826,497.023285 364.717682,498.357849 364.662384,499.688751 
	C364.361542,506.928680 360.196533,512.197083 353.839539,513.412842 
	C348.825531,514.371765 344.721130,511.544189 341.240845,504.434814 
z"/>
<path fill="none" opacity="1.000000" stroke="none" 
	d="
M375.823761,190.803131 
	C365.386932,201.086365 351.911285,203.917740 339.846100,198.565308 
	C328.282166,193.435257 320.604980,181.293213 321.006226,168.768555 
	C321.487823,153.735397 332.767731,141.067245 347.593262,138.909409 
	C362.559143,136.731140 377.362701,145.766251 382.227997,159.889481 
	C386.179504,171.360092 383.751526,181.458542 375.823761,190.803131 
z"/>
</svg>